<?xml version="1.0" encoding="utf-8"?>
<!-- Generator: Adobe Illustrator 16.0.3, SVG Export Plug-In . SVG Version: 6.00 Build 0)  -->
<!DOCTYPE svg PUBLIC "-//W3C//DTD SVG 1.1//EN" "http://www.w3.org/Graphics/SVG/1.1/DTD/svg11.dtd">
<svg version="1.1" xmlns="http://www.w3.org/2000/svg" xmlns:xlink="http://www.w3.org/1999/xlink" x="0px" y="0px" width="224px"
	 height="218px" viewBox="0 0 224 218" enable-background="new 0 0 224 218" xml:space="preserve">
<g id="Capa_1">
	<g>
		<defs>
			<path id="SVGID_1_" d="M9.591,109.405c0,57.638,46.727,104.364,104.366,104.364c57.641,0,104.366-46.727,104.366-104.364
				c0-57.64-46.726-104.367-104.366-104.367C56.318,5.039,9.591,51.766,9.591,109.405"/>
		</defs>
		<clipPath id="SVGID_2_">
			<use xlink:href="#SVGID_1_"  overflow="visible"/>
		</clipPath>
		<path clip-path="url(#SVGID_2_)" fill="#FAC81F" d="M217.51,109.404c0,57.639-46.727,104.365-104.367,104.365
			c-57.638,0-104.364-46.727-104.364-104.365S55.505,5.038,113.143,5.038C170.783,5.038,217.51,51.766,217.51,109.404"/>
	</g>
	<path fill="#FAC81F" d="M217.51,109.404c0,57.639-46.727,104.365-104.367,104.365c-57.638,0-104.364-46.727-104.364-104.365
		S55.505,5.038,113.143,5.038C170.783,5.038,217.51,51.766,217.51,109.404"/>
	<path fill="#F8A216" d="M215.994,127.186l-52.383-39.03l-85.41-0.039l-3.151-10.972L38.712,68.72l37.34,26.329l9.587,42.338
		l-15.027,16.306l16.45,10.921v4.199l54.84,40.942C180.004,198.855,209.186,166.844,215.994,127.186z"/>
	<path fill="none" d="M9.591,109.405c0,57.638,46.727,104.364,104.366,104.364c57.641,0,104.366-46.727,104.366-104.364
		c0-57.64-46.726-104.367-104.366-104.367C56.318,5.039,9.591,51.766,9.591,109.405"/>
	<path fill="#223C4F" d="M153.926,142.197H83.557L70.948,79.154l-25.392-8.79l1.955-5.642l28.621,9.906l2.101,10.504l86.135,0.208
		L153.926,142.197z M88.451,136.226h60.5l8.253-44.932l-77.777-0.188L88.451,136.226z"/>
	
		<rect x="70.923" y="110.699" transform="matrix(0.0945 0.9955 -0.9955 0.0945 200.611 6.8048)" fill="#223C4F" width="51.284" height="5.971"/>
	
		<rect x="85.833" y="110.717" transform="matrix(0.0441 0.999 -0.999 0.0441 220.046 -2.5686)" fill="#223C4F" width="51.064" height="5.971"/>
	
		<rect x="122.969" y="88.185" transform="matrix(0.9997 0.0253 -0.0253 0.9997 2.9218 -3.1559)" fill="#223C4F" width="5.972" height="50.998"/>
	
		<rect x="138.066" y="90.065" transform="matrix(0.9937 0.1124 -0.1124 0.9937 13.7829 -15.1223)" fill="#223C4F" width="5.971" height="49.302"/>
	<rect x="79.272" y="102.567" fill="#223C4F" width="78.348" height="5.972"/>
	<rect x="82.243" y="117.419" fill="#223C4F" width="72.651" height="5.97"/>
	<path fill="#223C4F" d="M154.894,154.142H69.915l0.123-3.104c0.424-10.641,12.488-14.518,13.002-14.677l1.774,5.7l-0.888-2.851
		l0.898,2.848c-0.072,0.022-5.795,1.896-7.987,6.112h78.057V154.142z"/>
	<path fill="#EC3232" d="M79.272,161.715c0,3.922,3.487,7.098,7.789,7.098c4.304,0,7.791-3.176,7.791-7.098
		c0-3.92-3.487-7.097-7.791-7.097C82.759,154.618,79.272,157.795,79.272,161.715"/>
	<path fill="#223C4F" d="M87.062,171.799c-5.941,0-10.774-4.524-10.774-10.084c0-5.559,4.833-10.082,10.774-10.082
		s10.776,4.523,10.776,10.082C97.837,167.274,93.002,171.799,87.062,171.799 M87.062,157.604c-2.648,0-4.805,1.845-4.805,4.111
		c0,2.269,2.157,4.112,4.805,4.112c2.65,0,4.806-1.844,4.806-4.112C91.868,159.448,89.711,157.604,87.062,157.604"/>
	<path fill="#EC3232" d="M136.554,161.715c0,3.922,3.485,7.098,7.789,7.098c4.303,0,7.79-3.176,7.79-7.098
		c0-3.92-3.487-7.097-7.79-7.097C140.039,154.618,136.554,157.795,136.554,161.715"/>
	<path fill="#223C4F" d="M144.343,171.799c-5.941,0-10.774-4.524-10.774-10.084c0-5.559,4.833-10.082,10.774-10.082
		c5.94,0,10.774,4.523,10.774,10.082C155.117,167.274,150.283,171.799,144.343,171.799 M144.343,157.604
		c-2.649,0-4.804,1.845-4.804,4.111c0,2.269,2.155,4.112,4.804,4.112c2.649,0,4.806-1.844,4.806-4.112
		C149.148,159.448,146.992,157.604,144.343,157.604"/>
	<path fill="#EC3232" d="M57.62,66.756c2.747,0.94,4.323,3.601,3.522,5.94c-0.801,2.339-3.677,3.473-6.426,2.532l-13.261-4.546
		c-2.749-0.94-4.324-3.6-3.522-5.939c0.8-2.339,3.675-3.474,6.424-2.532L57.62,66.756z"/>
	<path fill="#EC3232" d="M167.594,88.314c0,1.892-1.534,3.425-3.426,3.425H79.613l-1.411-6.851h85.966
		C166.06,84.889,167.594,86.423,167.594,88.314"/>
</g>
<g id="Capa_2" display="none">
</g>
</svg>
