<?xml version="1.0" encoding="utf-8"?>
<!-- Generator: Adobe Illustrator 16.0.3, SVG Export Plug-In . SVG Version: 6.00 Build 0)  -->
<!DOCTYPE svg PUBLIC "-//W3C//DTD SVG 1.1//EN" "http://www.w3.org/Graphics/SVG/1.1/DTD/svg11.dtd">
<svg version="1.1" id="Capa_1" xmlns="http://www.w3.org/2000/svg" xmlns:xlink="http://www.w3.org/1999/xlink" x="0px" y="0px"
	 width="224px" height="218px" viewBox="0 0 224 218" enable-background="new 0 0 224 218" xml:space="preserve">
<path fill="#FAC81F" d="M216.366,110.001c0,57.638-46.729,104.364-104.367,104.364c-57.638,0-104.365-46.727-104.365-104.364
	c0-57.643,46.728-104.367,104.365-104.367C169.638,5.634,216.366,52.358,216.366,110.001"/>
<path fill="#F8A216" d="M216.365,110c0-0.911-0.012-1.818-0.035-2.724l-67.17-50.878l-95.375,108.49l64.278,49.297
	c20.748-1.189,39.87-8.438,55.627-20.006C199.564,175.187,216.365,144.558,216.365,110z"/>
<path fill="none" d="M7.635,110c0,57.639,46.727,104.365,104.364,104.365c57.64,0,104.366-46.727,104.366-104.365
	c0-57.642-46.727-104.365-104.366-104.365C54.361,5.635,7.635,52.358,7.635,110"/>
<polygon fill="#39983D" points="59.145,71.227 149.16,56.398 149.16,71.227 "/>
<path fill="#417543" d="M150.155,72.222H59.145l-0.16-1.974l91.171-15.024V72.222z M71.307,70.231h76.858V57.57L71.307,70.231z"/>
<polygon fill="#39983D" points="59.145,71.227 130.433,50.08 135.835,58.595 "/>
<polygon fill="#417543" points="59.43,72.183 53.728,71.227 130.868,48.914 136.676,58.061 134.995,59.127 129.995,51.249 "/>
<rect x="53.728" y="71.227" fill="#223C4F" width="59.32" height="93.973"/>
<path fill="#EC3232" d="M112.838,71.227v93.854h26.618c0,0,32.488,3.605,32.488-28.879c0-32.486,6.318-64.975-29.555-64.975H112.838
	z"/>
<path fill="#223C4F" d="M180.067,120.409c0,8.723-7.071,15.792-15.792,15.792h-18.047c-8.726,0-15.796-7.069-15.796-15.792
	s7.07-15.794,15.796-15.794h18.047C172.996,104.615,180.067,111.687,180.067,120.409"/>
<path fill="#CC3E4F" d="M155.929,120.409c0,3.739-3.035,6.767-6.77,6.767c-3.738,0-6.77-3.027-6.77-6.767
	c0-3.735,3.031-6.769,6.77-6.769C152.894,113.641,155.929,116.674,155.929,120.409"/>
<path fill="#FAC81F" d="M149.16,128.171c-4.281,0-7.767-3.48-7.767-7.762c0-4.279,3.485-7.764,7.767-7.764
	c4.279,0,7.764,3.484,7.764,7.764C156.924,124.69,153.439,128.171,149.16,128.171 M149.16,114.636c-3.187,0-5.775,2.592-5.775,5.773
	c0,3.184,2.589,5.773,5.775,5.773c3.184,0,5.772-2.59,5.772-5.773C154.933,117.228,152.344,114.636,149.16,114.636"/>
</svg>
