<?xml version="1.0" encoding="utf-8"?>
<!-- Generator: Adobe Illustrator 16.0.3, SVG Export Plug-In . SVG Version: 6.00 Build 0)  -->
<!DOCTYPE svg PUBLIC "-//W3C//DTD SVG 1.1//EN" "http://www.w3.org/Graphics/SVG/1.1/DTD/svg11.dtd">
<svg version="1.1" id="Capa_1" xmlns="http://www.w3.org/2000/svg" xmlns:xlink="http://www.w3.org/1999/xlink" x="0px" y="0px"
	 width="39.269px" height="39.263px" viewBox="0 0 39.269 39.263" enable-background="new 0 0 39.269 39.263" xml:space="preserve">
<rect fill="#BF0B27" width="39.269" height="39.263"/>
<path fill="#FFFFFF" d="M13.112,10.854h13.055c1.232,0,2.248,1.016,2.248,2.254v13.049c0,1.237-1.016,2.242-2.248,2.242H13.112
	c-1.238,0-2.248-1.005-2.248-2.242V13.107C10.864,11.869,11.874,10.854,13.112,10.854 M23.649,12.804
	c-0.426,0-0.789,0.351-0.789,0.794v1.881c0,0.444,0.363,0.783,0.789,0.783h1.986c0.438,0,0.793-0.339,0.793-0.783v-1.881
	c0-0.443-0.355-0.794-0.793-0.794H23.649z M26.429,18.271h-1.535c0.146,0.479,0.222,0.993,0.222,1.508
	c0,2.92-2.447,5.291-5.461,5.291c-3.008,0-5.455-2.371-5.455-5.291c0-0.515,0.076-1.028,0.222-1.508H12.81v7.43
	c0,0.374,0.314,0.689,0.699,0.689h12.22c0.386,0,0.7-0.315,0.7-0.689V18.271z M19.654,16.168c-1.951,0-3.522,1.542-3.522,3.423
	s1.571,3.423,3.522,3.423s3.527-1.542,3.527-3.423S21.605,16.168,19.654,16.168"/>
</svg>
