<?xml version="1.0" encoding="utf-8"?>
<!-- Generator: Adobe Illustrator 16.0.3, SVG Export Plug-In . SVG Version: 6.00 Build 0)  -->
<!DOCTYPE svg PUBLIC "-//W3C//DTD SVG 1.1//EN" "http://www.w3.org/Graphics/SVG/1.1/DTD/svg11.dtd">
<svg version="1.1" id="Capa_1" xmlns="http://www.w3.org/2000/svg" xmlns:xlink="http://www.w3.org/1999/xlink" x="0px" y="0px"
	 width="298px" height="155px" viewBox="0 0 298 155" enable-background="new 0 0 298 155" xml:space="preserve">
<path fill="#FFFFFF" d="M19.596,19.44C25.113,88.32,82.752,142.5,153.054,142.5c70.3,0,127.94-54.18,133.458-123.06H19.596z"/>
<g>
	<path fill-rule="evenodd" clip-rule="evenodd" fill="#BF0B27" d="M93.246,77.829c0-3.424,2.775-6.198,6.198-6.198
		c3.422,0,6.197,2.774,6.197,6.198c0,3.423-2.775,6.197-6.197,6.197C96.021,84.026,93.246,81.252,93.246,77.829 M119.659,102.933
		c-5.493,4.23-12.82,6.793-20.289,6.793v-16.4c3.985,0,8.008-1.33,10.826-3.664c0.019-0.016,0.042-0.029,0.064-0.043
		c1.458-1.322,3.392-2.129,5.516-2.129c4.533,0,8.209,3.676,8.209,8.211C123.985,98.829,121.906,101.005,119.659,102.933
		 M67.259,77.12c0-17.98,14.576-32.558,32.557-32.558c7.675,0,14.731,2.657,20.297,7.1c2.102,1.827,3.709,3.995,3.709,6.866
		c0,4.535-3.674,8.211-8.209,8.211c-2.391,0-4.113-1.299-6.042-2.654c-2.72-2.037-6.096-3.243-9.755-3.243
		c-8.991,0-16.199,7.132-16.199,16.123l-0.004,1.72v26.68C73.839,99.746,67.259,89.2,67.259,77.12"/>
	<path fill="#1A1A1A" d="M138.187,60.705h-2.977v5.466h-5.629V47h8.606c3.752,0,6.69,3.06,6.69,6.73
		C144.877,57.442,141.939,60.705,138.187,60.705 M137.412,52.222h-2.202v3.263h2.202c0.897,0,1.632-0.734,1.632-1.632
		S138.309,52.222,137.412,52.222"/>
	<path fill="#1A1A1A" d="M147.511,64.254l-0.816,1.917h-6.037l9.382-19.66l9.381,19.66h-6.036l-0.817-1.917H147.511z M150.04,57.483
		l-1.143,2.854h2.285L150.04,57.483z"/>
	<path fill="#1A1A1A" d="M165.36,61.603v4.568h-5.629V47h7.831c4.161,0,7.383,3.223,7.383,7.384c0,2.364-1.06,4.078-2.202,4.894
		c1.754,1.062,2.202,2.447,2.202,4.731v2.162h-5.547v-1.795c0-1.55-1.223-2.773-2.773-2.773H165.36z M166.951,52.222h-1.591v4.322
		h1.591c1.224,0,2.161-0.938,2.161-2.16C169.112,53.159,168.175,52.222,166.951,52.222"/>
	<path fill="#1A1A1A" d="M183.235,66.416c-4.404-1.061-7.749-5.018-7.749-9.708c0-5.629,4.69-10.156,10.196-10.156
		c5.507,0,10.116,4.527,10.116,10.156c0,4.69-3.344,8.688-7.75,9.748v4.12h-4.813V66.416z M181.441,56.708
		c0,1.468,0.693,2.773,1.794,3.589v-1.835h4.813v1.876c1.101-0.774,1.795-2.121,1.795-3.63c0-2.447-1.795-4.486-4.161-4.486
		C183.317,52.222,181.441,54.261,181.441,56.708"/>
	<path fill="#1A1A1A" d="M196.517,59.563V47h5.629v12.726c0,0.816,0.693,1.51,1.509,1.51c0.816,0,1.509-0.693,1.509-1.51V47h5.628
		v12.563c0,3.957-3.14,7.178-7.137,7.178C199.699,66.741,196.517,63.521,196.517,59.563"/>
	<polygon fill="#1A1A1A" points="212.196,47.001 224.432,47.001 224.432,52.222 217.825,52.222 217.825,53.853 223.902,53.853 
		223.902,58.747 217.825,58.747 217.825,60.95 224.554,60.95 224.554,66.171 212.196,66.171 	"/>
	<path fill="#1A1A1A" d="M139.778,82.54c1.673,0,3.06-0.734,3.956-1.836v6.689c-1.59,0.652-2.854,0.815-3.956,0.815
		c-5.506,0-10.197-4.485-10.197-10.114c0-5.63,4.691-10.076,10.197-10.076c1.102,0,2.366,0.164,3.956,0.816v6.689
		c-0.896-1.102-2.283-1.835-3.956-1.835c-2.366,0-4.242,1.958-4.242,4.405C135.536,80.541,137.412,82.54,139.778,82.54"/>
	<path fill="#1A1A1A" d="M150.574,85.722l-0.816,1.917h-6.036l9.381-19.66l9.381,19.66h-6.036l-0.817-1.917H150.574z M153.103,78.95
		l-1.142,2.855h2.284L153.103,78.95z"/>
	<polygon fill="#1A1A1A" points="163.054,68.468 168.682,68.468 168.682,82.417 175.657,82.417 175.657,87.639 163.054,87.639 	"/>
	<path fill="#1A1A1A" d="M176.343,68.469h8.81c5.18,0,9.34,4.282,9.34,9.585c0,5.302-4.079,9.585-9.34,9.585h-8.81V68.469z
		 M184.174,82.417c2.447,0,4.364-1.916,4.364-4.363c0-2.448-1.917-4.365-4.364-4.365h-2.202v8.729H184.174z"/>
	<path fill="#1A1A1A" d="M198.94,85.722l-0.816,1.917h-6.036l9.381-19.66l9.381,19.66h-6.036l-0.817-1.917H198.94z M201.469,78.95
		l-1.142,2.855h2.284L201.469,78.95z"/>
	<path fill="#1A1A1A" d="M218.438,75.157c3.508,0,6.24,2.733,6.24,6.24c0,3.263-2.977,6.241-6.24,6.241h-7.301v-5.222h7.016
		c0.529,0,0.978-0.447,0.978-0.979c0-0.53-0.449-0.979-0.978-0.979h-1.958c-3.345,0-5.996-2.65-5.996-5.995s2.651-5.996,5.996-5.996
		h6.322v5.222h-6.078c-0.407,0-0.734,0.326-0.734,0.733c0,0.408,0.327,0.734,0.734,0.734H218.438z"/>
	<path fill="#1A1A1A" d="M132.427,98.726c0.468,0,0.854-0.205,1.104-0.512v1.865c-0.443,0.184-0.796,0.229-1.104,0.229
		c-1.536,0-2.846-1.253-2.846-2.824c0-1.57,1.31-2.811,2.846-2.811c0.308,0,0.661,0.045,1.104,0.227v1.867
		c-0.25-0.307-0.636-0.512-1.104-0.512c-0.66,0-1.184,0.546-1.184,1.229C131.243,98.168,131.767,98.726,132.427,98.726"/>
	<polygon fill="#1A1A1A" points="135.784,94.798 139.199,94.798 139.199,96.255 137.355,96.255 137.355,96.712 139.052,96.712 
		139.052,98.076 137.355,98.076 137.355,98.691 139.233,98.691 139.233,100.148 135.784,100.148 	"/>
	<polygon fill="#1A1A1A" points="141.419,94.798 142.705,94.798 144.39,96.608 144.39,94.798 145.904,94.798 145.904,100.296 
		142.933,97.189 142.933,100.148 141.419,100.148 	"/>
	<polygon fill="#1A1A1A" points="149.182,96.313 148.032,96.313 148.032,94.799 151.903,94.799 151.903,96.313 150.751,96.313 
		150.751,100.148 149.182,100.148 	"/>
	<path fill="#1A1A1A" d="M155.18,98.874v1.274h-1.571v-5.35h2.186c1.161,0,2.06,0.898,2.06,2.061c0,0.66-0.295,1.138-0.615,1.366
		c0.49,0.295,0.615,0.682,0.615,1.32v0.603h-1.547v-0.5c0-0.434-0.342-0.774-0.775-0.774H155.18z M155.624,96.255h-0.444v1.207
		h0.444c0.342,0,0.604-0.262,0.604-0.603C156.228,96.518,155.966,96.255,155.624,96.255"/>
	<path fill="#1A1A1A" d="M159.756,97.507c0-1.57,1.308-2.834,2.846-2.834c1.536,0,2.823,1.264,2.823,2.834
		c0,1.537-1.287,2.802-2.823,2.802C161.064,100.309,159.756,99.044,159.756,97.507 M161.417,97.507c0,0.662,0.524,1.23,1.185,1.23
		c0.66,0,1.161-0.568,1.161-1.23c0-0.683-0.501-1.252-1.161-1.252C161.941,96.255,161.417,96.824,161.417,97.507"/>
	<path fill="#1A1A1A" d="M174.165,98.726c0.467,0,0.854-0.205,1.104-0.512v1.865c-0.443,0.184-0.796,0.229-1.104,0.229
		c-1.536,0-2.846-1.253-2.846-2.824c0-1.57,1.31-2.811,2.846-2.811c0.308,0,0.661,0.045,1.104,0.227v1.867
		c-0.25-0.307-0.637-0.512-1.104-0.512c-0.66,0-1.184,0.546-1.184,1.229C172.981,98.168,173.505,98.726,174.165,98.726"/>
	<path fill="#1A1A1A" d="M177.124,97.507c0-1.57,1.309-2.834,2.847-2.834c1.536,0,2.822,1.264,2.822,2.834
		c0,1.537-1.286,2.802-2.822,2.802C178.433,100.309,177.124,99.044,177.124,97.507 M178.786,97.507c0,0.662,0.524,1.23,1.185,1.23
		c0.66,0,1.16-0.568,1.16-1.23c0-0.683-0.5-1.252-1.16-1.252C179.31,96.255,178.786,96.824,178.786,97.507"/>
	<polygon fill="#1A1A1A" points="187.357,100.296 186.264,98.43 185.935,100.148 184.42,100.148 185.604,94.674 187.357,97.701 
		189.11,94.674 190.295,100.148 188.78,100.148 188.45,98.43 	"/>
	<polygon fill="#1A1A1A" points="192.434,94.798 195.849,94.798 195.849,96.255 194.003,96.255 194.003,96.712 195.702,96.712 
		195.702,98.076 194.003,98.076 194.003,98.691 195.883,98.691 195.883,100.148 192.434,100.148 	"/>
	<path fill="#1A1A1A" d="M199.696,98.874v1.274h-1.571v-5.35h2.186c1.161,0,2.06,0.898,2.06,2.061c0,0.66-0.295,1.138-0.615,1.366
		c0.49,0.295,0.615,0.682,0.615,1.32v0.603h-1.547v-0.5c0-0.434-0.342-0.774-0.775-0.774H199.696z M200.14,96.255h-0.444v1.207
		h0.444c0.342,0,0.604-0.262,0.604-0.603C200.744,96.518,200.481,96.255,200.14,96.255"/>
	<path fill="#1A1A1A" d="M207.128,98.726c0.467,0,0.854-0.205,1.104-0.512v1.865c-0.443,0.184-0.796,0.229-1.104,0.229
		c-1.536,0-2.846-1.253-2.846-2.824c0-1.57,1.31-2.811,2.846-2.811c0.308,0,0.661,0.045,1.104,0.227v1.867
		c-0.25-0.307-0.637-0.512-1.104-0.512c-0.66,0-1.184,0.546-1.184,1.229C205.944,98.168,206.468,98.726,207.128,98.726"/>
	<rect x="210.485" y="94.798" fill="#1A1A1A" width="1.571" height="5.351"/>
	<path fill="#1A1A1A" d="M215.847,99.614l-0.228,0.534h-1.684l2.618-5.487l2.618,5.487h-1.684l-0.228-0.534H215.847z
		 M216.553,97.724l-0.319,0.797h0.637L216.553,97.724z"/>
	<polygon fill="#1A1A1A" points="221.048,94.798 222.619,94.798 222.619,98.691 224.566,98.691 224.566,100.148 221.048,100.148 	
		"/>
	<rect x="129.464" y="90.937" fill="#1A1A1A" width="95.33" height="1.065"/>
	<path fill="#BF0B27" d="M132.082,104.464h2.448c1.44,0,2.596,1.19,2.596,2.664s-1.134,2.664-2.596,2.664h-2.448V104.464z
		 M134.259,108.341c0.68,0,1.212-0.533,1.212-1.213c0-0.681-0.532-1.213-1.212-1.213h-0.612v2.426H134.259z"/>
	<path fill="#BF0B27" d="M136.898,107.161c0-1.563,1.303-2.821,2.834-2.821c1.529,0,2.81,1.258,2.81,2.821
		c0,1.53-1.281,2.789-2.81,2.789C138.201,109.95,136.898,108.691,136.898,107.161 M138.553,107.161c0,0.658,0.521,1.225,1.179,1.225
		c0.657,0,1.155-0.566,1.155-1.225c0-0.68-0.498-1.246-1.155-1.246C139.074,105.915,138.553,106.481,138.553,107.161"/>
	<polygon fill="#BF0B27" points="142.483,104.464 143.764,104.464 145.442,106.266 145.442,104.464 146.949,104.464 
		146.949,109.938 143.991,106.844 143.991,109.791 142.483,109.791 	"/>
	<path fill="#BF0B27" d="M147.458,104.464h2.448c1.44,0,2.596,1.19,2.596,2.664s-1.134,2.664-2.596,2.664h-2.448V104.464z
		 M149.634,108.341c0.681,0,1.213-0.533,1.213-1.213c0-0.681-0.532-1.213-1.213-1.213h-0.611v2.426H149.634z"/>
	<polygon fill="#BF0B27" points="152.67,104.464 156.07,104.464 156.07,105.915 154.234,105.915 154.234,106.368 155.923,106.368 
		155.923,107.728 154.234,107.728 154.234,108.34 156.105,108.34 156.105,109.791 152.67,109.791 	"/>
	<polygon fill="#BF0B27" points="158.709,104.464 162.109,104.464 162.109,105.915 160.273,105.915 160.273,106.368 
		161.962,106.368 161.962,107.728 160.273,107.728 160.273,108.34 162.144,108.34 162.144,109.791 158.709,109.791 	"/>
	<polygon fill="#BF0B27" points="162.414,104.464 163.695,104.464 165.373,106.266 165.373,104.464 166.88,104.464 166.88,109.938 
		163.922,106.844 163.922,109.791 162.414,109.791 	"/>
	<path fill="#BF0B27" d="M169.837,108.374c0.465,0,0.85-0.204,1.1-0.51v1.859c-0.443,0.181-0.794,0.227-1.1,0.227
		c-1.53,0-2.834-1.247-2.834-2.811c0-1.564,1.304-2.801,2.834-2.801c0.306,0,0.657,0.045,1.1,0.228v1.858
		c-0.25-0.306-0.635-0.51-1.1-0.51c-0.657,0-1.179,0.543-1.179,1.225C168.658,107.819,169.18,108.374,169.837,108.374"/>
	<path fill="#BF0B27" d="M171.218,107.954v-3.49h1.564v3.537c0,0.226,0.193,0.419,0.42,0.419s0.419-0.193,0.419-0.419v-3.537h1.565
		v3.49c0,1.101-0.873,1.996-1.984,1.996C172.103,109.95,171.218,109.055,171.218,107.954"/>
	<polygon fill="#BF0B27" points="175.693,104.464 179.093,104.464 179.093,105.915 177.257,105.915 177.257,106.368 
		178.946,106.368 178.946,107.728 177.257,107.728 177.257,108.34 179.128,108.34 179.128,109.791 175.693,109.791 	"/>
	<polygon fill="#BF0B27" points="179.398,104.464 180.68,104.464 182.357,106.266 182.357,104.464 183.864,104.464 183.864,109.938 
		180.906,106.844 180.906,109.791 179.398,109.791 	"/>
	<polygon fill="#BF0B27" points="185.223,105.972 184.078,105.972 184.078,104.464 187.932,104.464 187.932,105.972 
		186.787,105.972 186.787,109.791 185.223,109.791 	"/>
	<path fill="#BF0B27" d="M189.292,108.521v1.27h-1.565v-5.327h2.177c1.156,0,2.052,0.896,2.052,2.052
		c0,0.657-0.295,1.133-0.613,1.36c0.488,0.294,0.613,0.68,0.613,1.314v0.601h-1.542v-0.498c0-0.432-0.34-0.771-0.771-0.771H189.292z
		 M189.733,105.915h-0.442v1.201h0.442c0.34,0,0.601-0.261,0.601-0.601S190.073,105.915,189.733,105.915"/>
	<path fill="#BF0B27" d="M193.642,109.258l-0.227,0.533h-1.677l2.607-5.463l2.606,5.463h-1.676l-0.227-0.533H193.642z
		 M194.345,107.377l-0.317,0.793h0.634L194.345,107.377z"/>
	<path fill="#BF0B27" d="M198.956,106.323c0.975,0,1.734,0.759,1.734,1.733c0,0.907-0.827,1.734-1.734,1.734h-2.028v-1.45h1.949
		c0.147,0,0.271-0.125,0.271-0.271c0-0.148-0.124-0.273-0.271-0.273h-0.544c-0.93,0-1.666-0.736-1.666-1.665
		c0-0.93,0.736-1.667,1.666-1.667h1.757v1.451h-1.69c-0.113,0-0.203,0.091-0.203,0.204c0,0.112,0.09,0.204,0.203,0.204H198.956z"/>
	<polygon fill="#BF0B27" points="204.032,105.972 202.886,105.972 202.886,104.464 206.741,104.464 206.741,105.972 
		205.595,105.972 205.595,109.791 204.032,109.791 	"/>
	<path fill="#BF0B27" d="M206.309,107.161c0-1.563,1.303-2.821,2.834-2.821c1.53,0,2.81,1.258,2.81,2.821
		c0,1.53-1.28,2.789-2.81,2.789C207.612,109.95,206.309,108.691,206.309,107.161 M207.964,107.161c0,0.658,0.521,1.225,1.179,1.225
		c0.657,0,1.156-0.566,1.156-1.225c0-0.68-0.499-1.246-1.156-1.246C208.485,105.915,207.964,106.481,207.964,107.161"/>
	<path fill="#BF0B27" d="M212.122,104.464h2.448c1.44,0,2.595,1.19,2.595,2.664s-1.133,2.664-2.595,2.664h-2.448V104.464z
		 M214.298,108.341c0.681,0,1.213-0.533,1.213-1.213c0-0.681-0.532-1.213-1.213-1.213h-0.612v2.426H214.298z"/>
	<path fill="#BF0B27" d="M216.938,107.161c0-1.563,1.303-2.821,2.833-2.821c1.53,0,2.811,1.258,2.811,2.821
		c0,1.53-1.281,2.789-2.811,2.789C218.241,109.95,216.938,108.691,216.938,107.161 M218.592,107.161
		c0,0.658,0.521,1.225,1.179,1.225c0.658,0,1.156-0.566,1.156-1.225c0-0.68-0.498-1.246-1.156-1.246
		C219.113,105.915,218.592,106.481,218.592,107.161"/>
	<path fill="#BF0B27" d="M223.951,107.978c0.522,0,0.964,0.453,0.964,0.986s-0.442,0.975-0.964,0.975
		c-0.544,0-0.963-0.441-0.963-0.975S223.407,107.978,223.951,107.978 M223.203,101.857h1.508v5.485h-1.508V101.857z"/>
	<path fill="#BF0B27" d="M130.548,101.704c0.521,0,0.964,0.441,0.964,0.974c0,0.533-0.443,0.986-0.964,0.986
		c-0.544,0-0.963-0.453-0.963-0.986C129.585,102.146,130.004,101.704,130.548,101.704 M129.8,104.299h1.508v5.485H129.8V104.299z"/>
</g>
</svg>
