<?xml version="1.0" encoding="utf-8"?>
<!-- Generator: Adobe Illustrator 16.0.3, SVG Export Plug-In . SVG Version: 6.00 Build 0)  -->
<!DOCTYPE svg PUBLIC "-//W3C//DTD SVG 1.1//EN" "http://www.w3.org/Graphics/SVG/1.1/DTD/svg11.dtd">
<svg version="1.1" id="Capa_1" xmlns="http://www.w3.org/2000/svg" xmlns:xlink="http://www.w3.org/1999/xlink" x="0px" y="0px"
	 width="224px" height="218px" viewBox="0 0 224 218" enable-background="new 0 0 224 218" xml:space="preserve">
<path fill="#60B8D6" d="M216.988,110.42c0,57.64-46.727,104.365-104.366,104.365c-57.639,0-104.366-46.726-104.366-104.365
	c0-57.638,46.728-104.364,104.366-104.364C170.262,6.056,216.988,52.782,216.988,110.42"/>
<path fill="#3996C4" d="M119.652,39.898L104.467,142.37l-11.903,42.034l37.513,28.563c23.649-3.894,44.622-15.73,60.077-32.688
	c15.942-17.683,25.918-40.844,26.768-66.32L119.652,39.898z"/>
<path fill="none" d="M8.634,110c0,57.639,46.726,104.365,104.365,104.365c57.641,0,104.366-46.727,104.366-104.365
	C217.365,52.358,170.641,5.635,113,5.635C55.36,5.635,8.634,52.358,8.634,110"/>
<polygon fill="#D32120" points="111.018,127.593 88.5,127.593 92.185,184.906 111.018,184.906 129.849,184.906 133.534,127.593 "/>
<polygon fill="#EC3232" points="88.5,127.593 111.018,127.593 111.018,184.906 92.186,184.906 "/>
<path fill="#D3D2D1" d="M111.018,127.593v-13.408H97.917c0,0-5.321,3.274-6.139,6.705c-0.82,3.427,0,6.703,0,6.703H111.018z"/>
<polygon fill="#C9C7C5" points="111.018,78.057 97.917,78.057 97.917,114.185 111.018,114.185 124.117,114.185 124.117,78.057 "/>
<rect x="97.917" y="78.057" fill="#F4F3F2" width="13.102" height="36.128"/>
<polygon fill="#D32120" points="133.534,127.593 111.018,127.593 111.018,184.906 129.849,184.906 "/>
<path fill="#B5B3B1" d="M111.018,127.593v-13.408h13.099c0,0,5.321,3.274,6.142,6.705c0.818,3.427,0,6.703,0,6.703H111.018z"/>
<rect x="111.018" y="78.057" fill="#C9C7C5" width="13.1" height="36.128"/>
<path fill="#EC3232" d="M101.214,78.057V54.04c0,0,7.349-10.098,17.171-13.407c1.886-0.634,3.004,5.492,3.004,8.495
	c0,3.001,0.179,28.929,0.179,28.929H101.214z"/>
</svg>
