<?xml version="1.0" encoding="utf-8"?>
<!-- Generator: Adobe Illustrator 16.0.3, SVG Export Plug-In . SVG Version: 6.00 Build 0)  -->
<!DOCTYPE svg PUBLIC "-//W3C//DTD SVG 1.1//EN" "http://www.w3.org/Graphics/SVG/1.1/DTD/svg11.dtd">
<svg version="1.1" id="Capa_2" xmlns="http://www.w3.org/2000/svg" xmlns:xlink="http://www.w3.org/1999/xlink" x="0px" y="0px"
	 width="227.143px" height="222.857px" viewBox="0 0 227.143 222.857" enable-background="new 0 0 227.143 222.857"
	 xml:space="preserve">
<path fill="#F87024" d="M217.185,112.458c0,57.639-46.727,104.365-104.367,104.365c-57.638,0-104.361-46.727-104.361-104.365
	c0-57.64,46.724-104.366,104.361-104.366C170.458,8.092,217.185,54.818,217.185,112.458"/>
<path fill="none" d="M8.455,111.217c0,57.641,46.725,104.367,104.362,104.367c57.641,0,104.367-46.727,104.367-104.367
	c0-57.638-46.727-104.364-104.367-104.364C55.18,6.853,8.455,53.579,8.455,111.217"/>
<path fill="#EA501B" d="M57.841,166.918l65.343,49.394c52.773-5.204,94.001-49.713,94.001-103.854c0-0.653-0.013-1.303-0.024-1.953
	l-77.638-59.114L57.841,166.918z"/>
<g>
	<polygon fill="#FCFCFC" points="86.288,50.899 113.037,50.899 113.037,176.2 70.538,176.2 57.841,166.918 57.841,100.484 
		72.004,92.666 98.871,92.666 98.871,89.245 94.719,89.245 94.719,85.582 86.413,85.58 	"/>
	<polygon fill="#E5E2DF" points="139.783,50.899 113.037,50.899 113.037,176.2 155.536,176.2 168.235,166.918 168.235,100.484 
		154.07,92.666 127.203,92.666 127.203,89.245 131.355,89.245 131.355,85.582 139.661,85.58 	"/>
	<path fill="#98D5E1" d="M63.333,113.55h49.704v56.662c0,0-48.238,1.1-49.704-6.228C61.866,156.657,63.333,113.55,63.333,113.55"/>
	<path fill="#7ECADE" d="M162.743,113.55h-49.706v56.662c0,0,48.24,1.1,49.706-6.228C164.208,156.657,162.743,113.55,162.743,113.55
		"/>
	<polygon fill="#FAC81F" points="94.719,85.582 113.037,85.582 113.037,92.666 98.871,92.666 98.871,89.245 94.719,89.245 	"/>
	<polygon fill="#F8A216" points="113.037,85.582 131.355,85.582 131.355,89.245 127.203,89.245 127.203,92.666 113.037,92.666 	"/>
</g>
</svg>
