<?xml version="1.0" encoding="utf-8"?>
<!-- Generator: Adobe Illustrator 16.0.3, SVG Export Plug-In . SVG Version: 6.00 Build 0)  -->
<!DOCTYPE svg PUBLIC "-//W3C//DTD SVG 1.1//EN" "http://www.w3.org/Graphics/SVG/1.1/DTD/svg11.dtd">
<svg version="1.1" xmlns="http://www.w3.org/2000/svg" xmlns:xlink="http://www.w3.org/1999/xlink" x="0px" y="0px"
	 width="227.143px" height="222.857px" viewBox="0 0 227.143 222.857" enable-background="new 0 0 227.143 222.857"
	 xml:space="preserve">
<g id="Capa_3">
	<path fill="#F87024" d="M216.78,110.738c0,57.639-46.727,104.365-104.367,104.365c-57.639,0-104.364-46.727-104.364-104.365
		S54.774,6.372,112.413,6.372C170.054,6.372,216.78,53.099,216.78,110.738"/>
	<path fill="none" d="M8.055,110.739c0,57.638,46.726,104.364,104.364,104.364c57.643,0,104.367-46.727,104.367-104.364
		c0-57.64-46.725-104.367-104.367-104.367C54.78,6.372,8.055,53.099,8.055,110.739"/>
	<path fill="#EA501B" d="M216.78,110.738c0-1.361-0.034-2.713-0.086-4.062L120.22,35.311l-11.671,0.745c0,0-5.121-1.649-10.991,1.81
		c-5.869,3.459-0.15,27.774-0.15,27.774l-43.965,95.203l70.436,53.63C176.124,208.764,216.78,164.501,216.78,110.738z"/>
	<g>
		<defs>
			<rect id="SVGID_1_" x="-538" y="-1537.669" width="1920" height="3111.722"/>
		</defs>
		<clipPath id="SVGID_2_">
			<use xlink:href="#SVGID_1_"  overflow="visible"/>
		</clipPath>
		<path clip-path="url(#SVGID_2_)" fill="#C0C0C0" d="M115.14,75.248l-1.318-2.998c-5.883-13.327-11.44-25.915-7.569-32.935
			c1.524-2.765,4.435-4.484,8.646-5.109c2.986-0.437,5.49,0.341,7.439,2.328c7.967,8.112,3.707,34.227,3.523,35.335l-1.965-0.329
			c0.045-0.261,4.281-26.22-2.979-33.611c-1.502-1.53-3.38-2.105-5.727-1.753c-3.616,0.536-5.969,1.878-7.196,4.102
			c-3.394,6.155,1.969,18.306,7.646,31.17l1.322,3.001L115.14,75.248z"/>
		<polygon clip-path="url(#SVGID_2_)" fill="#C0C0C0" points="168.856,167.089 113.315,177.594 94.637,78.858 150.18,68.356 		"/>
		<path clip-path="url(#SVGID_2_)" fill="#C0C0C0" d="M112.523,178.755L93.474,78.064l57.5-10.872l19.045,100.691L112.523,178.755z
			 M95.8,79.65l18.31,96.782l53.586-10.135l-18.308-96.78L95.8,79.65z"/>
		<path clip-path="url(#SVGID_2_)" fill="#FBFAFA" d="M137.601,164.031l-1.651-9.172c-6.522,0.87-13.112,0.267-17.163-1.2
			l0.865-11.818c4.455,1.491,10.514,2.496,16.793,1.364c5.502-0.992,8.885-3.794,8.191-7.653c-0.662-3.673-4.17-5.433-11.75-6.562
			c-10.957-1.612-18.875-5.17-20.562-14.537c-1.53-8.499,3.255-16.239,13.223-20.125l-1.653-9.176l9.461-1.707l1.533,8.503
			c6.52-0.877,11.109-0.309,14.572,0.664l-0.835,11.412c-2.7-0.608-7.543-2.026-14.497-0.773c-6.273,1.128-7.814,4.197-7.328,6.899
			c0.575,3.186,4.319,4.604,13.081,6.221c12.22,1.981,17.813,6.459,19.38,15.147c1.547,8.593-3.215,17.026-13.972,20.96l1.776,9.848
			L137.601,164.031z"/>
		<path clip-path="url(#SVGID_2_)" fill="#F1F1F1" d="M97.743,66.768c0,0-21.504,9.364-24.971,14.912s-19.074,78.721-19.074,78.721
			l52.713,12.139c0,0,14.912-68.665,16.992-76.295c2.082-7.63-15.258-27.743-15.258-27.743L97.743,66.768z"/>
		<path clip-path="url(#SVGID_2_)" fill="#F1F1F1" d="M107.169,173.735L52.521,161.15l0.205-0.957
			c0.638-2.994,15.683-73.409,19.204-79.041c3.589-5.742,24.525-14.909,25.414-15.297l0.271-0.118l11.049,1.842l0.234,0.272
			c1.811,2.1,17.622,20.743,15.465,28.653c-2.051,7.521-16.832,75.559-16.98,76.246L107.169,173.735z M54.878,159.651l50.773,11.691
			c1.905-8.761,14.84-68.199,16.793-75.359c1.564-5.744-9.945-20.852-14.818-26.561l-9.756-1.625
			c-6.102,2.678-21.584,10.14-24.254,14.41C70.891,86.569,59.362,138.67,54.878,159.651"/>
		<path clip-path="url(#SVGID_2_)" fill="#F1F1F1" d="M106.255,70.833l-1.59-1.196c0.135-0.179,13.477-18.1,9.719-27.608
			c-1.146-2.897-3.887-4.747-8.146-5.493c-3.625-0.639-6.241,0.027-7.991,2.032c-6.133,7.028,0.377,27.688,0.443,27.896
			l-1.895,0.606c-0.287-0.893-6.914-21.938-0.049-29.81c2.215-2.541,5.52-3.442,9.836-2.687c4.986,0.875,8.234,3.138,9.651,6.724
			C120.399,51.841,106.833,70.064,106.255,70.833"/>
		<path clip-path="url(#SVGID_2_)" fill="#223C4F" d="M82.894,143.741l1.25-5.727c-4-1.064-7.686-3.004-9.688-4.831l3.354-6.661
			c2.229,1.941,5.512,3.984,9.431,4.84c3.438,0.751,6.075-0.061,6.604-2.475c0.498-2.293-1.115-4.161-5.248-6.643
			c-5.975-3.578-9.722-7.556-8.445-13.406c1.16-5.307,5.811-8.651,12.539-8.506l1.248-5.729l5.912,1.288l-1.16,5.309
			c3.998,1.064,6.537,2.502,8.312,3.9l-3.239,6.43c-1.425-1.004-3.89-2.996-8.232-3.942c-3.922-0.859-5.557,0.553-5.924,2.24
			c-0.435,1.989,1.4,3.718,6.105,6.768c6.618,4.103,8.788,8.047,7.602,13.477c-1.172,5.365-5.971,9.118-13.164,8.811l-1.344,6.148
			L82.894,143.741z"/>
	</g>
</g>
<g id="Capa_2" display="none">
</g>
</svg>
