<?xml version="1.0" encoding="utf-8"?>
<!-- Generator: Adobe Illustrator 16.0.3, SVG Export Plug-In . SVG Version: 6.00 Build 0)  -->
<!DOCTYPE svg PUBLIC "-//W3C//DTD SVG 1.1//EN" "http://www.w3.org/Graphics/SVG/1.1/DTD/svg11.dtd">
<svg version="1.1" id="Capa_1" xmlns="http://www.w3.org/2000/svg" xmlns:xlink="http://www.w3.org/1999/xlink" x="0px" y="0px"
	 width="224px" height="218px" viewBox="0 0 224 218" enable-background="new 0 0 224 218" xml:space="preserve">
<path fill="#FAC81F" d="M216.365,109.789c0,57.643-46.727,104.367-104.368,104.367c-57.638,0-104.361-46.725-104.361-104.367
	C7.636,52.153,54.36,5.427,111.998,5.427C169.639,5.427,216.365,52.153,216.365,109.789"/>
<path fill="#F8A216" d="M150.785,56.195L62.863,171.673l54.902,41.802c54.872-2.988,98.462-48.357,98.598-103.945
	c-0.003-1.157-0.03-2.308-0.07-3.456L150.785,56.195z"/>
<path fill="none" d="M7.635,109.27c0,57.643,46.725,104.366,104.362,104.366c57.641,0,104.368-46.724,104.368-104.366
	c0-57.636-46.727-104.364-104.368-104.364C54.36,4.905,7.635,51.634,7.635,109.27"/>
<rect x="62.863" y="95.862" fill="#60B8D6" width="47.906" height="76.133"/>
<rect x="110.769" y="95.862" fill="#3996C4" width="47.907" height="76.133"/>
<rect x="62.863" y="168.114" fill="#27A9CC" width="47.906" height="3.881"/>
<rect x="110.986" y="168.114" fill="#289EBC" width="47.909" height="3.881"/>
<rect x="59.367" y="79.293" fill="#60B8D6" width="51.402" height="16.571"/>
<polygon fill="#2993B8" points="110.769,100.783 62.863,100.783 59.367,95.863 110.769,95.863 "/>
<rect x="110.769" y="79.293" fill="#3996C4" width="51.532" height="16.571"/>
<polygon fill="#1E758C" points="110.769,100.783 158.678,100.783 162.301,95.863 110.769,95.863 "/>
<rect x="62.863" y="121.89" fill="#EC3232" width="47.906" height="7.38"/>
<rect x="107.964" y="79.292" fill="#EC3232" width="3.021" height="92.703"/>
<rect x="110.985" y="121.89" fill="#C41B1E" width="47.908" height="7.38"/>
<rect x="110.769" y="79.292" fill="#C41B1E" width="3.022" height="92.703"/>
<polygon fill="#EC3232" points="107.556,79.292 104.65,65.316 110.989,65.316 110.989,79.292 "/>
<path fill="#EC3232" d="M104.65,65.316c0,0-19.007-10.666-28.197-10.298c-9.186,0.366-8.869,5.142-8.869,5.142l8.553,8.834
	c0,0-1.583,1.47-2.215,5.886c-0.636,4.412-3.168,4.412-3.168,4.412h36.803l-1.896-9.1c0,0-19.066,6.159-21.603,4.317
	c-2.536-1.838,20.974-7.361,20.974-7.361L104.65,65.316z"/>
<polygon fill="#C41B1E" points="114.416,79.292 117.322,65.316 110.989,65.316 110.989,79.292 "/>
<path fill="#C41B1E" d="M117.322,65.316c0,0,19.005-10.666,28.194-10.298c9.189,0.366,8.873,5.142,8.873,5.142l-8.553,8.834
	c0,0,1.582,1.47,2.215,5.886c0.635,4.412,3.168,4.412,3.168,4.412h-36.803l1.894-9.1c0,0,19.067,6.159,21.604,4.317
	c2.536-1.838-20.974-7.361-20.974-7.361L117.322,65.316z"/>
</svg>
