<?xml version="1.0" encoding="utf-8"?>
<!-- Generator: Adobe Illustrator 16.0.3, SVG Export Plug-In . SVG Version: 6.00 Build 0)  -->
<!DOCTYPE svg PUBLIC "-//W3C//DTD SVG 1.1//EN" "http://www.w3.org/Graphics/SVG/1.1/DTD/svg11.dtd">
<svg version="1.1" id="Capa_2" xmlns="http://www.w3.org/2000/svg" xmlns:xlink="http://www.w3.org/1999/xlink" x="0px" y="0px"
	 width="227.143px" height="222.857px" viewBox="0 0 227.143 222.857" enable-background="new 0 0 227.143 222.857"
	 xml:space="preserve">
<path fill="#EC3232" d="M219.593,109.404c0,57.639-46.727,104.365-104.366,104.365c-57.638,0-104.365-46.727-104.365-104.365
	S57.589,5.038,115.227,5.038C172.866,5.038,219.593,51.766,219.593,109.404"/>
<path fill="none" d="M10.861,109.405c0,57.638,46.729,104.364,104.365,104.364c57.64,0,104.366-46.727,104.366-104.364
	c0-57.64-46.727-104.367-104.366-104.367C57.59,5.039,10.861,51.766,10.861,109.405"/>
<path fill="#C41B1E" d="M116.056,22.442c0,0,5.525,12.246-3.761,16.559c-9.285,4.314-0.332,7.818-0.332,7.818L64.968,71.731
	l54.133,44.569l-51.944,68.224l37.741,28.736c3.398,0.334,6.843,0.509,10.329,0.509c9.907,0,19.491-1.38,28.571-3.959
	c1.651-0.469,3.285-0.978,4.902-1.524c1.616-0.547,3.215-1.133,4.795-1.756c3.159-1.246,6.244-2.642,9.244-4.178
	c2.25-1.153,4.453-2.384,6.604-3.692c30.125-18.305,50.249-51.43,50.249-89.255c0-3.525-0.178-7.009-0.519-10.445L116.056,22.442z"
	/>
<g>
	<defs>
		<rect id="SVGID_1_" x="-846.429" y="-1539.003" width="1920" height="3111.723"/>
	</defs>
	<clipPath id="SVGID_2_">
		<use xlink:href="#SVGID_1_"  overflow="visible"/>
	</clipPath>
	<path clip-path="url(#SVGID_2_)" fill="#F9F9F9" d="M64.968,71.73c0,0,10.935-12.087,21.747-15.063
		c16.48-4.54,19.468-15.067,20.197-15.675h2.871l0.019-2.308c0,0,8.017-5.711,8.137-8.385c0.123-2.673-2.734-10.146-12.268-1.336
		l-1.866-1.444c0,0,4.055-5.906,9.76-5.603c6.196,0.332,9.112,6.805,6.686,10.692c-2.432,3.89-5.544,5.969-5.544,5.969l0.046,2.414
		h2.459c0,0,12.136,14.58,26.364,16.039c12.454,1.275,23.571,14.699,23.571,14.699h-11.299l-40.097-21.169l-5.739,0.273
		L74.988,71.73H64.968z"/>
	<path clip-path="url(#SVGID_2_)" fill="#F8A216" d="M129.847,106.479c1.066-3.992,5.635-21.103,5.635-21.103
		s12.027-20.072,13.584-25.363c1.558-5.291-7.866-4.321-7.866-4.321s-7.706,26.366-27.39,26.366
		c-19.683,0-27.388-26.366-27.388-26.366s-9.428-0.97-7.868,4.321c1.558,5.291,13.588,25.363,13.588,25.363
		s4.565,17.11,5.631,21.103c-17.493,9.479-30.616,78.369-30.616,78.369h46.653h46.656
		C160.466,184.849,147.345,115.958,129.847,106.479"/>
	<path clip-path="url(#SVGID_2_)" fill="#FAC81F" d="M86.422,55.692c0,0,7.706,26.366,27.388,26.366v102.79H67.156
		c0,0,13.123-68.891,30.617-78.369c-1.065-3.992-5.632-21.102-5.632-21.102s-12.03-20.073-13.588-25.364
		C76.995,54.723,86.422,55.692,86.422,55.692"/>
	<path clip-path="url(#SVGID_2_)" fill="#F8A216" d="M141.199,55.692c0,0-7.706,26.366-27.39,26.366v102.79h46.656
		c0,0-13.121-68.891-30.619-78.369c1.066-3.992,5.635-21.102,5.635-21.102s12.027-20.073,13.584-25.364
		C150.623,54.723,141.199,55.692,141.199,55.692"/>
</g>
</svg>
