<?xml version="1.0" encoding="utf-8"?>
<!-- Generator: Adobe Illustrator 16.0.3, SVG Export Plug-In . SVG Version: 6.00 Build 0)  -->
<!DOCTYPE svg PUBLIC "-//W3C//DTD SVG 1.1//EN" "http://www.w3.org/Graphics/SVG/1.1/DTD/svg11.dtd">
<svg version="1.1" id="Capa_1" xmlns="http://www.w3.org/2000/svg" xmlns:xlink="http://www.w3.org/1999/xlink" x="0px" y="0px"
	 width="52.5px" height="56px" viewBox="0 0 52.5 56" enable-background="new 0 0 52.5 56" xml:space="preserve">
<path fill="#FFFFFF" d="M50.298,44.321c0,4.464-3.622,8.08-8.086,8.08H11.89c-4.464,0-8.086-3.616-8.086-8.08V12.975
	c0-4.464,3.622-8.08,8.086-8.08h30.322c4.464,0,8.086,3.616,8.086,8.08V44.321z"/>
<path fill="#353635" d="M44.311,39.938l-4.349,4.35L29.114,33.439c-1.197-1.209,3.14-5.547,4.337-4.35L44.311,39.938z"/>
<path fill="#353635" d="M25.516,36.717c-2.993,0-5.808-1.162-7.929-3.277c-4.379-4.385-4.379-11.5,0-15.871
	c2.121-2.128,4.936-3.29,7.935-3.29c3,0,5.813,1.162,7.93,3.29c4.384,4.371,4.384,11.486,0,15.871
	C31.335,35.555,28.521,36.717,25.516,36.717 M25.521,19.51c-1.604,0-3.104,0.616-4.243,1.744c-2.337,2.337-2.337,6.139,0,8.486
	c1.139,1.129,2.639,1.756,4.237,1.756c1.609,0,3.109-0.627,4.237-1.756c2.338-2.348,2.338-6.149,0-8.486
	C28.625,20.126,27.125,19.51,25.521,19.51"/>
<g>
	<g>
		<defs>
			<rect id="SVGID_1_" x="19.521" y="19.512" width="11.989" height="11.99"/>
		</defs>
		<clipPath id="SVGID_2_">
			<use xlink:href="#SVGID_1_"  overflow="visible"/>
		</clipPath>
		<path clip-path="url(#SVGID_2_)" fill="#FFFFFF" d="M25.521,19.51c1.604,0,3.104,0.616,4.231,1.744
			c2.338,2.337,2.338,6.139,0,8.486c-1.128,1.129-2.628,1.756-4.237,1.756c-1.599,0-3.099-0.627-4.237-1.756
			c-2.337-2.348-2.337-6.149,0-8.486C22.417,20.126,23.917,19.51,25.521,19.51"/>
	</g>
</g>
</svg>
