<?xml version="1.0" encoding="utf-8"?>
<!-- Generator: Adobe Illustrator 16.0.3, SVG Export Plug-In . SVG Version: 6.00 Build 0)  -->
<!DOCTYPE svg PUBLIC "-//W3C//DTD SVG 1.1//EN" "http://www.w3.org/Graphics/SVG/1.1/DTD/svg11.dtd">
<svg version="1.1" xmlns="http://www.w3.org/2000/svg" xmlns:xlink="http://www.w3.org/1999/xlink" x="0px" y="0px"
	 width="227.143px" height="222.857px" viewBox="0 0 227.143 222.857" enable-background="new 0 0 227.143 222.857"
	 xml:space="preserve">
<g id="Capa_2">
	<path fill="#60B8D6" d="M217.259,107.932c0,57.641-46.729,104.367-104.367,104.367S8.526,165.572,8.526,107.932
		c0-57.638,46.727-104.364,104.366-104.364S217.259,50.294,217.259,107.932"/>
	<path fill="none" d="M8.527,107.932c0,57.641,46.726,104.367,104.365,104.367s104.365-46.727,104.365-104.367
		c0-57.638-46.727-104.364-104.365-104.364S8.527,50.294,8.527,107.932"/>
	<path fill="#3996C4" d="M217.223,110.635l-77.048-59.133l-16.502,29.556L86.868,50.213l-37.375,53.261l8.391,51.963l72.71,55.36
		C178.938,202.535,215.941,161.028,217.223,110.635z"/>
	<g>
		<defs>
			<rect id="SVGID_1_" x="-1160" y="-1539.67" width="1920" height="3111.723"/>
		</defs>
		<clipPath id="SVGID_2_">
			<use xlink:href="#SVGID_1_"  overflow="visible"/>
		</clipPath>
		<path clip-path="url(#SVGID_2_)" fill="#F8A216" d="M39.463,79.672l14.434,68.813c0,0,1.926,10.104,8.664,10.104h93.352
			c0,0,5.777,2.408,9.145-9.623c3.365-12.032,14.436-69.294,14.436-69.294H39.463z"/>
		<rect x="39.463" y="79.672" clip-path="url(#SVGID_2_)" fill="#FAC81F" width="140.03" height="22.629"/>
		<path clip-path="url(#SVGID_2_)" fill="#3996C4" d="M111.886,150.045c0,1.527-1.238,2.768-2.766,2.768
			c-1.531,0-2.771-1.24-2.771-2.768v-40.662c0-1.527,1.24-2.767,2.771-2.767c1.527,0,2.766,1.239,2.766,2.767V150.045z"/>
		<path clip-path="url(#SVGID_2_)" fill="#3996C4" d="M123.673,150.045c0,1.527-1.236,2.768-2.766,2.768s-2.77-1.24-2.77-2.768
			v-40.662c0-1.527,1.24-2.767,2.77-2.767s2.766,1.239,2.766,2.767V150.045z"/>
		<path clip-path="url(#SVGID_2_)" fill="#3996C4" d="M136.052,150.107c-0.037,1.527-1.305,2.735-2.834,2.696
			c-1.527-0.037-2.734-1.308-2.697-2.835l1.016-40.648c0.037-1.525,1.307-2.734,2.834-2.697c1.527,0.038,2.734,1.308,2.699,2.834
			L136.052,150.107z"/>
		<path clip-path="url(#SVGID_2_)" fill="#3996C4" d="M147.085,150.169c-0.088,1.526-1.396,2.692-2.92,2.605
			c-1.529-0.085-2.695-1.395-2.607-2.919l2.311-40.596c0.088-1.527,1.393-2.693,2.924-2.606c1.523,0.087,2.689,1.396,2.602,2.921
			L147.085,150.169z"/>
		<path clip-path="url(#SVGID_2_)" fill="#3996C4" d="M157.995,150.208c-0.133,1.521-1.471,2.648-2.996,2.517
			c-1.525-0.131-2.652-1.474-2.518-2.995l3.514-40.509c0.135-1.524,1.479-2.649,3.002-2.519c1.523,0.132,2.646,1.475,2.516,2.996
			L157.995,150.208z"/>
		<path clip-path="url(#SVGID_2_)" fill="#3996C4" d="M77.681,149.878c0.076,1.526-1.096,2.827-2.623,2.904
			c-1.527,0.078-2.832-1.097-2.904-2.625l-2.059-40.606c-0.076-1.526,1.098-2.828,2.629-2.904c1.523-0.079,2.824,1.096,2.9,2.625
			L77.681,149.878z"/>
		<path clip-path="url(#SVGID_2_)" fill="#3996C4" d="M66.784,149.744c0.127,1.524-1.004,2.862-2.525,2.988
			c-1.527,0.129-2.863-1.005-2.988-2.528l-3.377-40.521c-0.125-1.522,1.004-2.86,2.531-2.987c1.521-0.126,2.857,1.006,2.986,2.529
			L66.784,149.744z"/>
		<path clip-path="url(#SVGID_2_)" fill="#3996C4" d="M89.056,149.935c0.051,1.526-1.141,2.81-2.67,2.862
			c-1.527,0.055-2.813-1.141-2.865-2.669l-1.436-40.634c-0.053-1.527,1.137-2.811,2.672-2.864c1.523-0.052,2.807,1.141,2.859,2.669
			L89.056,149.935z"/>
		<path clip-path="url(#SVGID_2_)" fill="#3996C4" d="M99.854,150.045c0,1.527-1.234,2.768-2.764,2.768
			c-1.533,0-2.768-1.24-2.768-2.768v-40.662c0-1.527,1.234-2.767,2.768-2.767c1.529,0,2.764,1.239,2.764,2.767V150.045z"/>
		<path clip-path="url(#SVGID_2_)" fill="#D39125" d="M68.073,90.315c0,4.392-3.557,7.948-7.949,7.948
			c-4.389,0-7.943-3.557-7.943-7.948c0-4.389,3.555-7.945,7.943-7.945C64.517,82.37,68.073,85.927,68.073,90.315"/>
		<path clip-path="url(#SVGID_2_)" fill="#223C4F" d="M63.833,92.491c-1.582,2.296-4.73,2.874-7.027,1.287
			c-2.299-1.585-2.875-4.732-1.289-7.028l24.324-35.248c1.588-2.297,4.732-2.874,7.027-1.289c2.297,1.586,2.877,4.733,1.293,7.029
			L63.833,92.491z"/>
		<path clip-path="url(#SVGID_2_)" fill="#D39125" d="M151.942,90.315c0,4.392,3.557,7.948,7.949,7.948
			c4.387,0,7.945-3.557,7.945-7.948c0-4.389-3.559-7.945-7.945-7.945C155.499,82.37,151.942,85.927,151.942,90.315"/>
		<path clip-path="url(#SVGID_2_)" fill="#223C4F" d="M156.183,92.491c1.584,2.296,4.73,2.874,7.025,1.287
			c2.301-1.585,2.877-4.732,1.293-7.028l-24.326-35.248c-1.588-2.297-4.734-2.874-7.029-1.289c-2.297,1.586-2.875,4.733-1.289,7.029
			L156.183,92.491z"/>
	</g>
</g>
<g id="Capa_3" display="none">
	<path display="inline" fill="#3996C4" d="M217.223,110.635l-77.048-59.133l-16.502,29.556L86.868,50.213l-37.375,53.261
		l8.391,51.963l72.71,55.36C178.938,202.535,215.941,161.028,217.223,110.635z"/>
</g>
</svg>
