<?xml version="1.0" encoding="utf-8"?>
<!-- Generator: Adobe Illustrator 16.0.3, SVG Export Plug-In . SVG Version: 6.00 Build 0)  -->
<!DOCTYPE svg PUBLIC "-//W3C//DTD SVG 1.1//EN" "http://www.w3.org/Graphics/SVG/1.1/DTD/svg11.dtd">
<svg version="1.1" id="Capa_1" xmlns="http://www.w3.org/2000/svg" xmlns:xlink="http://www.w3.org/1999/xlink" x="0px" y="0px"
	 width="224px" height="218px" viewBox="0 0 224 218" enable-background="new 0 0 224 218" xml:space="preserve">
<path fill="#EC3232" d="M217.987,109.633c0,57.643-46.726,104.367-104.365,104.367C55.983,214,9.257,167.275,9.257,109.633
	c0-57.636,46.727-104.364,104.365-104.364C171.262,5.269,217.987,51.997,217.987,109.633"/>
<path fill="#C41B1E" d="M215.987,108.998c0-10.536-1.567-20.705-4.472-30.293l-39.979-30.344L39.752,154l77.749,59.197
	C172.404,210.148,215.987,164.667,215.987,108.998z"/>
<path fill="none" d="M9.634,109.633C9.634,167.276,56.36,214,113.999,214c57.642,0,104.367-46.724,104.367-104.367
	c0-57.635-46.726-104.363-104.367-104.363C56.36,5.27,9.634,51.998,9.634,109.633"/>
<path fill="#19758F" d="M184.882,122.117l-52.852,8.109L120.81,57.088c0,0,49.717-7.629,52.726-8.092
	c3.804-1.094,4.339,5.745,4.339,5.745s8.57,55.848,9.495,61.862C188.29,122.62,184.882,122.117,184.882,122.117"/>
<path fill="#1E8BA3" d="M79.183,138.334l52.849-8.107L120.81,57.088c0,0-49.721,7.627-52.726,8.09
	c-3.961,0.095-2.421,6.782-2.421,6.782s8.572,55.846,9.495,61.861C76.079,139.836,79.183,138.334,79.183,138.334"/>
<rect x="68.028" y="74.997" transform="matrix(0.9884 -0.1517 0.1517 0.9884 -11.1696 19.8901)" fill="#E2E5E7" width="113.543" height="16.334"/>
<path fill="#3996C4" d="M151.526,156.649h-53.47V82.653h53.341c3.928-0.505,3.422,6.337,3.422,6.337v62.588
	C154.819,157.664,151.526,156.649,151.526,156.649"/>
<path fill="#60B8D6" d="M44.587,156.649h53.471V82.653H44.714c-3.928-0.505-3.42,6.337-3.42,6.337v62.588
	C41.294,157.664,44.587,156.649,44.587,156.649"/>
<rect x="51.52" y="145.152" fill="#E2E5E7" width="19.86" height="6.492"/>
<rect x="88.124" y="145.152" fill="#E2E5E7" width="19.863" height="6.492"/>
<rect x="121.737" y="145.152" fill="#E2E5E7" width="19.861" height="6.492"/>
<path fill="#E2E5E7" d="M113.856,108.525c-0.502,0.316-1.635,0.655-3.104,0.655c-4.183,0-6.336-3.274-6.336-7.613
	c0-5.195,2.944-8.088,6.604-8.088c1.418,0,2.494,0.362,2.98,0.679l-0.559,2.732c-0.556-0.293-1.326-0.564-2.297-0.564
	c-2.172,0-3.857,1.648-3.857,5.037c0,3.051,1.435,4.971,3.875,4.971c0.826,0,1.742-0.227,2.279-0.495L113.856,108.525z"/>
<path fill="#E2E5E7" d="M118.642,105.047l-0.863,3.908h-2.835l3.698-15.227h3.588l3.752,15.227h-2.943l-0.933-3.908H118.642z
	 M121.71,102.472l-0.754-3.231c-0.217-0.903-0.432-2.033-0.609-2.938h-0.037c-0.18,0.904-0.357,2.058-0.557,2.938l-0.717,3.231
	H121.71z"/>
<path fill="#E2E5E7" d="M127.589,93.931c0.879-0.181,2.189-0.314,3.644-0.314c1.795,0,3.05,0.338,3.913,1.196
	c0.717,0.723,1.111,1.785,1.111,3.186c0,1.942-1.095,3.274-2.136,3.752v0.066c0.845,0.428,1.31,1.446,1.615,2.845
	c0.377,1.72,0.753,3.708,0.987,4.294h-2.799c-0.199-0.43-0.484-1.67-0.845-3.546c-0.323-1.899-0.843-2.418-1.956-2.441H130.3v5.987
	h-2.711V93.931z M130.3,100.483h1.076c1.362,0,2.172-0.858,2.172-2.192c0-1.4-0.754-2.102-2.012-2.123
	c-0.662,0-1.04,0.067-1.236,0.112V100.483z"/>
<path fill="#E2E5E7" d="M138.224,93.931c1.004-0.202,2.314-0.314,3.697-0.314c2.297,0,3.786,0.518,4.953,1.626
	c1.258,1.174,2.045,3.049,2.045,5.737c0,2.914-0.843,4.927-2.009,6.169c-1.274,1.333-3.212,1.965-5.582,1.965
	c-1.418,0-2.422-0.113-3.104-0.226V93.931z M140.97,106.356c0.233,0.067,0.61,0.067,0.951,0.067
	c2.477,0.024,4.092-1.693,4.092-5.329c0.019-3.164-1.453-4.836-3.806-4.836c-0.61,0-1.004,0.067-1.237,0.137V106.356z"/>
<polygon fill="#FAC81F" points="75.661,127.76 55.558,124.972 47.919,106.169 60.382,90.152 80.485,92.938 88.124,111.742 "/>
</svg>
