<?xml version="1.0" encoding="utf-8"?>
<!-- Generator: Adobe Illustrator 16.0.3, SVG Export Plug-In . SVG Version: 6.00 Build 0)  -->
<!DOCTYPE svg PUBLIC "-//W3C//DTD SVG 1.1//EN" "http://www.w3.org/Graphics/SVG/1.1/DTD/svg11.dtd">
<svg version="1.1" id="Capa_1" xmlns="http://www.w3.org/2000/svg" xmlns:xlink="http://www.w3.org/1999/xlink" x="0px" y="0px"
	 width="39.267px" height="39.263px" viewBox="0 0 39.267 39.263" enable-background="new 0 0 39.267 39.263" xml:space="preserve">
<rect fill="#BF0B27" width="39.267" height="39.263"/>
<path fill="#FFFFFF" d="M29.273,13.641c-0.713,0.314-1.46,0.537-2.268,0.618c0.818-0.479,1.449-1.262,1.741-2.185
	c-0.771,0.456-1.611,0.783-2.517,0.958c-0.719-0.759-1.747-1.25-2.88-1.25c-2.19,0-3.96,1.776-3.96,3.961
	c0,0.303,0.035,0.607,0.1,0.898c-3.283-0.163-6.191-1.74-8.143-4.123c-0.346,0.584-0.537,1.262-0.537,1.975
	c0,1.378,0.695,2.593,1.758,3.282c-0.648-0.012-1.262-0.175-1.799-0.491v0.059c0,1.916,1.367,3.517,3.178,3.878
	c-0.333,0.082-0.684,0.141-1.046,0.141c-0.251,0-0.502-0.034-0.741-0.069c0.508,1.577,1.962,2.71,3.691,2.745
	c-1.344,1.063-3.057,1.693-4.906,1.693c-0.322,0-0.637-0.012-0.947-0.059c1.747,1.121,3.832,1.775,6.063,1.775
	c7.271,0,11.255-6.016,11.255-11.249c0-0.162,0-0.339-0.006-0.502C28.076,15.123,28.747,14.435,29.273,13.641"/>
</svg>
