<?xml version="1.0" encoding="utf-8"?>
<!-- Generator: Adobe Illustrator 16.0.3, SVG Export Plug-In . SVG Version: 6.00 Build 0)  -->
<!DOCTYPE svg PUBLIC "-//W3C//DTD SVG 1.1//EN" "http://www.w3.org/Graphics/SVG/1.1/DTD/svg11.dtd">
<svg version="1.1" xmlns="http://www.w3.org/2000/svg" xmlns:xlink="http://www.w3.org/1999/xlink" x="0px" y="0px" width="224px"
	 height="218px" viewBox="0 0 224 218" enable-background="new 0 0 224 218" xml:space="preserve">
<g id="Capa_1">
	<path fill="#60B8D6" d="M216,108.998c0,57.643-46.726,104.367-104.366,104.367c-57.639,0-104.365-46.725-104.365-104.367
		c0-57.636,46.726-104.364,104.365-104.364C169.274,4.634,216,51.362,216,108.998"/>
	<path fill="#3996C4" d="M163.681,55.292l-25.46,57.31L27.18,147.443l86.546,65.896c2.889-0.057,5.751-0.226,8.578-0.513
		C174.933,207.482,216,163.038,216,108.998c0-5.034-0.364-9.981-1.053-14.825L163.681,55.292z"/>
	<path fill="none" d="M7.268,108.998c0,57.644,46.727,104.367,104.366,104.367c57.641,0,104.366-46.724,104.366-104.367
		C216,51.363,169.274,4.635,111.634,4.635C53.995,4.635,7.268,51.363,7.268,108.998"/>
	<path fill="#F8A216" d="M163.604,151.937h-8.335l1.563-35.428c0,0-9.117-0.521-13.286,3.646
		c-4.169,4.168-8.336,18.755-13.546,22.401c-5.209,3.648-8.352,6.917-16.931,6.775c-8.581-0.144-77.889-1.303-77.889-1.303
		s7.816-11.463,13.286-12.245c5.469-0.779,20.839-4.947,26.571-7.814c5.73-2.865,19.015-15.368,19.015-15.368
		s7.815,7.033,13.025,5.209c5.21-1.822,25.007-14.849,36.21-24.227c11.2-9.376,27.611-35.428,28.394-38.292
		c0.78-2.865,11.983,18.497,12.503,25.791c0.521,7.292-2.346,24.226-14.067,33.732C158.396,124.323,162.042,150.373,163.604,151.937
		"/>
	<path fill="#FAC81F" d="M94.053,112.602c0,0,5.634,5.1,11.364,5.488c5.73,0.386,0.637,28.598,11.516,31.035
		c10.881,2.436-81.752-1.096-81.752-1.096s4.453-9.582,10.749-11.271s24.813-6.053,29.107-8.788
		C79.332,125.233,94.053,112.602,94.053,112.602"/>
</g>
<g id="Capa_2" display="none">
</g>
</svg>
